<?xml version="1.0" encoding="UTF-8" standalone="no"?><!DOCTYPE svg PUBLIC "-//W3C//DTD SVG 1.1//EN" "http://www.w3.org/Graphics/SVG/1.1/DTD/svg11.dtd"><svg width="100%" height="100%" viewBox="0 0 12 11" version="1.1" xmlns="http://www.w3.org/2000/svg" xmlns:xlink="http://www.w3.org/1999/xlink" xml:space="preserve" xmlns:serif="http://www.serif.com/" style="fill-rule:evenodd;clip-rule:evenodd;stroke-linejoin:round;stroke-miterlimit:1.41421;"><g><g><rect x="0.139" y="3.494" width="2.417" height="7.258" style="fill:#fff;"/><path d="M10.488,4.157c-0.508,-0.555 -1.179,-0.832 -2.014,-0.832c-0.308,0 -0.587,0.038 -0.839,0.114c-0.251,0.075 -0.464,0.182 -0.637,0.318c-0.173,0.137 -0.311,0.264 -0.414,0.381c-0.097,0.111 -0.192,0.241 -0.285,0.388l0,-1.032l-2.41,0l0.007,0.351c0.005,0.235 0.008,0.957 0.008,2.168c0,1.211 -0.005,2.791 -0.015,4.739l2.41,0l0,-4.051c0,-0.248 0.026,-0.446 0.08,-0.593c0.103,-0.249 0.258,-0.458 0.465,-0.626c0.208,-0.169 0.465,-0.253 0.773,-0.253c0.42,0 0.729,0.146 0.927,0.436c0.197,0.291 0.296,0.692 0.296,1.205l0,3.882l2.41,0l0,-4.16c0,-1.07 -0.254,-1.881 -0.762,-2.435Z" style="fill:#fff;fill-rule:nonzero;"/><path d="M1.362,0c-0.405,0 -0.733,0.118 -0.985,0.355c-0.251,0.237 -0.377,0.536 -0.377,0.897c0,0.357 0.122,0.655 0.366,0.894c0.244,0.239 0.567,0.359 0.967,0.359l0.015,0c0.41,0 0.741,-0.12 0.992,-0.359c0.251,-0.239 0.375,-0.537 0.37,-0.894c-0.005,-0.361 -0.13,-0.66 -0.374,-0.897c-0.244,-0.237 -0.568,-0.355 -0.974,-0.355Z" style="fill:#fff;fill-rule:nonzero;"/></g></g></svg>