<?xml version="1.0" encoding="UTF-8" standalone="no"?><!DOCTYPE svg PUBLIC "-//W3C//DTD SVG 1.1//EN" "http://www.w3.org/Graphics/SVG/1.1/DTD/svg11.dtd"><svg width="100%" height="100%" viewBox="0 0 15 12" version="1.1" xmlns="http://www.w3.org/2000/svg" xmlns:xlink="http://www.w3.org/1999/xlink" xml:space="preserve" xmlns:serif="http://www.serif.com/" style="fill-rule:evenodd;clip-rule:evenodd;stroke-linejoin:round;stroke-miterlimit:1.41421;"><g><path d="M14.713,1.415c-0.542,0.24 -1.124,0.403 -1.734,0.475c0.623,-0.373 1.101,-0.964 1.327,-1.669c-0.583,0.346 -1.229,0.597 -1.917,0.732c-0.55,-0.587 -1.335,-0.953 -2.203,-0.953c-1.667,0 -3.019,1.352 -3.019,3.018c0,0.237 0.027,0.467 0.079,0.688c-2.509,-0.125 -4.733,-1.327 -6.222,-3.154c-0.26,0.446 -0.409,0.965 -0.409,1.518c0,1.047 0.533,1.971 1.343,2.512c-0.495,-0.015 -0.96,-0.151 -1.367,-0.378c0,0.013 0,0.026 0,0.039c0,1.462 1.041,2.682 2.421,2.959c-0.253,0.069 -0.52,0.106 -0.795,0.106c-0.195,0 -0.384,-0.019 -0.568,-0.054c0.384,1.199 1.499,2.072 2.82,2.096c-1.033,0.81 -2.335,1.293 -3.749,1.293c-0.243,0 -0.484,-0.015 -0.72,-0.043c1.335,0.857 2.922,1.357 4.627,1.357c5.552,0 8.588,-4.6 8.588,-8.589c0,-0.131 -0.003,-0.261 -0.009,-0.39c0.59,-0.426 1.102,-0.957 1.507,-1.563Z" style="fill:#fff;fill-rule:nonzero;"/></g></svg>