<?xml version="1.0" encoding="UTF-8" standalone="no"?><!DOCTYPE svg PUBLIC "-//W3C//DTD SVG 1.1//EN" "http://www.w3.org/Graphics/SVG/1.1/DTD/svg11.dtd"><svg width="100%" height="100%" viewBox="0 0 17 20" version="1.1" xmlns="http://www.w3.org/2000/svg" xmlns:xlink="http://www.w3.org/1999/xlink" xml:space="preserve" xmlns:serif="http://www.serif.com/" style="fill-rule:evenodd;clip-rule:evenodd;stroke-linejoin:round;stroke-miterlimit:1.41421;"><g><path id="YouTube" d="M13.998,14.526l-1.09,0l0.005,-0.633c0,-0.281 0.231,-0.511 0.514,-0.511l0.069,0c0.283,0 0.515,0.23 0.515,0.511l-0.013,0.633Zm-4.088,-1.356c-0.276,0 -0.502,0.185 -0.502,0.413l0,3.079c0,0.227 0.226,0.412 0.502,0.412c0.278,0 0.504,-0.185 0.504,-0.412l0,-3.079c0,-0.228 -0.226,-0.413 -0.504,-0.413Zm6.639,-1.723l0,5.857c0,1.405 -1.218,2.555 -2.707,2.555l-11.134,0c-1.49,0 -2.708,-1.15 -2.708,-2.555l0,-5.857c0,-1.405 1.218,-2.554 2.708,-2.554l11.134,0c1.489,0 2.707,1.149 2.707,2.554Zm-13.099,6.493l0,-6.169l1.38,0l0,-0.914l-3.68,-0.006l0,0.899l1.149,0.003l0,6.187l1.151,0Zm4.138,-5.25l-1.151,0l0,3.294c0,0.477 0.029,0.715 -0.002,0.799c-0.093,0.256 -0.514,0.527 -0.678,0.028c-0.028,-0.088 -0.003,-0.351 -0.004,-0.804l-0.004,-3.317l-1.145,0l0.004,3.265c0.001,0.5 -0.011,0.874 0.004,1.043c0.028,0.3 0.018,0.649 0.296,0.848c0.517,0.373 1.51,-0.055 1.758,-0.588l-0.002,0.68l0.924,0.001l0,-5.249Zm3.681,3.772l-0.003,-2.742c0,-1.045 -0.782,-1.67 -1.843,-0.825l0.004,-2.039l-1.149,0.002l-0.006,7.037l0.946,-0.014l0.086,-0.438c1.207,1.108 1.967,0.349 1.965,-0.981Zm3.601,-0.363l-0.863,0.005c0,0.034 -0.001,0.073 -0.002,0.116l0,0.482c0,0.258 -0.213,0.467 -0.471,0.467l-0.169,0c-0.259,0 -0.472,-0.209 -0.472,-0.467l0,-0.054l0,-0.529l0,-0.683l1.975,0l0,-0.744c0,-0.544 -0.013,-1.087 -0.058,-1.397c-0.142,-0.983 -1.521,-1.139 -2.218,-0.636c-0.219,0.157 -0.386,0.367 -0.483,0.65c-0.098,0.282 -0.147,0.668 -0.147,1.159l0,1.635c0.001,2.718 3.302,2.334 2.908,-0.004Zm-4.426,-8.876c0.06,0.144 0.152,0.261 0.277,0.349c0.124,0.087 0.282,0.131 0.471,0.131c0.166,0 0.313,-0.045 0.441,-0.138c0.127,-0.092 0.235,-0.229 0.323,-0.412l-0.022,0.451l1.282,0l0,-5.455l-1.009,0l0,4.246c0,0.23 -0.19,0.418 -0.421,0.418c-0.23,0 -0.42,-0.188 -0.42,-0.418l0,-4.246l-1.054,0l0,3.679c0,0.469 0.009,0.782 0.022,0.94c0.015,0.157 0.051,0.308 0.11,0.455Zm-3.887,-3.081c0,-0.524 0.044,-0.933 0.131,-1.228c0.087,-0.293 0.244,-0.529 0.471,-0.707c0.227,-0.179 0.517,-0.269 0.87,-0.269c0.297,0 0.551,0.058 0.763,0.172c0.213,0.115 0.378,0.264 0.492,0.448c0.116,0.184 0.195,0.374 0.238,0.568c0.043,0.196 0.064,0.493 0.064,0.893l0,1.38c0,0.506 -0.021,0.878 -0.06,1.114c-0.039,0.237 -0.123,0.457 -0.253,0.663c-0.128,0.204 -0.293,0.356 -0.494,0.454c-0.202,0.098 -0.434,0.146 -0.695,0.146c-0.293,0 -0.539,-0.04 -0.742,-0.125c-0.204,-0.084 -0.361,-0.21 -0.473,-0.378c-0.113,-0.168 -0.193,-0.373 -0.241,-0.612c-0.048,-0.238 -0.071,-0.597 -0.071,-1.075l0,-1.444Zm1.005,2.167c0,0.308 0.23,0.561 0.51,0.561c0.28,0 0.509,-0.253 0.509,-0.561l0,-2.904c0,-0.309 -0.229,-0.561 -0.509,-0.561c-0.28,0 -0.51,0.252 -0.51,0.561l0,2.904Zm-3.55,1.466l1.21,0l0.001,-4.184l1.43,-3.584l-1.323,0l-0.76,2.662l-0.771,-2.669l-1.31,0l1.521,3.593l0.002,4.182Z" style="fill:#fff;fill-rule:nonzero;"/></g></svg>